<svg width="155" height="25" viewBox="0 0 155 25" fill="none" xmlns="http://www.w3.org/2000/svg">
<path fillRule="evenodd" clipRule="evenodd" d="M38.1111 11.5773H41.6831C43.5868 11.5773 44.9345 11.279 45.726 10.6826C46.5226 10.0861 46.9184 9.0953 46.9184 7.72035C46.9184 6.49706 46.5877 5.572 45.9264 4.94013C45.2651 4.30827 44.2932 3.98981 43.0057 3.98981H38.1111V11.5773ZM35.3457 13.8318V1.85156H42.9857C45.1649 1.85156 46.8432 2.36717 48.0155 3.39332C49.1878 4.41948 49.774 5.88035 49.774 7.7709C49.774 8.8931 49.5435 9.89903 49.0876 10.7938C48.6317 11.6935 47.9855 12.3962 47.1538 12.9118C46.6428 13.2353 45.9966 13.4729 45.23 13.6195C44.4635 13.7661 43.4766 13.8368 42.2793 13.8368H35.3457V13.8318ZM51.843 13.8318V4.01508H62.2784V5.74893H54.2327V7.89222H58.9219V9.58057H54.2327V11.9968H62.3987V13.8318H51.843ZM63.6962 13.8318V4.01508H65.3244L73.5806 10.5309V4.01508H75.7298V13.8318H74.0865L65.8554 7.21486V13.8318H63.6962ZM83.7405 5.7742V13.8318H81.3708V5.7742H76.6716V4.01508H88.4447V5.7742H83.7405ZM86.2253 13.8318L92.0016 4.01508H94.2811L100.143 13.8318H97.4824L96.255 11.6784H89.8224L88.595 13.8318H86.2253ZM90.8294 9.88892H95.2881L93.0237 5.79947L90.8294 9.88892ZM100.438 13.8318V4.01508H102.828V11.9968H110.458V13.8318H100.438Z" fill="white"/>
<path fillRule="evenodd" clipRule="evenodd" d="M115.765 2.01758V11.7433H123.636V2.01758H126.391V11.167C126.391 12.2589 126.186 13.007 125.785 13.4064C125.379 13.8057 124.603 13.9978 123.445 13.9978H115.946C114.799 13.9978 114.022 13.8007 113.611 13.4064C113.2 13.0121 113 12.264 113 11.167V2.01758H115.765ZM130.319 13.9978V2.01758H132.208L140.569 9.07934C140.855 9.31186 141.105 9.53428 141.32 9.74659C141.541 9.95384 141.736 10.1662 141.917 10.3835C141.872 9.7112 141.846 9.23604 141.826 8.95802C141.811 8.68 141.801 8.46263 141.801 8.31098V2.01758H144.281V13.9978H142.393L133.67 6.59736C133.46 6.40527 133.275 6.23846 133.119 6.08681C132.964 5.93516 132.814 5.78351 132.684 5.62175C132.719 5.99076 132.749 6.33956 132.769 6.66813C132.789 6.9967 132.799 7.27978 132.799 7.52241V13.9927H130.319V13.9978ZM148.204 13.9978V2.01758H150.969V13.9978H148.204Z" fill="white"/>
<path fillRule="evenodd" clipRule="evenodd" d="M36.1656 18.5487V19.8832C36.1656 19.9338 36.1706 19.9894 36.1907 20.0551H35.5645C35.5795 20.0045 35.5845 19.9439 35.5845 19.8832V16.7188C35.5845 16.6582 35.5745 16.6026 35.5645 16.547H36.6766C36.9471 16.547 37.1776 16.6026 37.363 16.7138C37.6535 16.8806 37.7938 17.1535 37.7938 17.5175C37.7938 17.9219 37.6185 18.2151 37.2678 18.392C37.0624 18.4931 36.8169 18.5487 36.5313 18.5487H36.1656ZM36.1656 18.2757H36.4762C36.6466 18.2757 36.7818 18.2454 36.887 18.1848C36.9872 18.1241 37.0624 18.0331 37.1225 17.9168C37.1776 17.8006 37.2077 17.6692 37.2077 17.5226C37.2077 17.3001 37.1475 17.1232 37.0273 16.9968C36.9071 16.8705 36.7367 16.8048 36.5263 16.8048H36.1706V18.2757H36.1656ZM40.0082 20.0551H38.2447C38.2597 20.0045 38.2647 19.9489 38.2647 19.8933V16.7239C38.2647 16.6632 38.2547 16.6076 38.2447 16.5571H38.8709C38.8559 16.6076 38.8509 16.6632 38.8509 16.7239V19.7771H39.8328C39.9079 19.7771 39.9681 19.7669 40.0082 19.7518V20.0551ZM40.9149 18.9531L40.5793 19.9085C40.5642 19.9489 40.5592 19.9995 40.5592 20.0551H40.2286C40.2586 20.0045 40.2837 19.954 40.2987 19.9085L41.4359 16.6784C41.451 16.6329 41.461 16.5924 41.461 16.552H41.967C41.967 16.5874 41.977 16.6228 41.992 16.6683L43.1643 19.9085C43.1794 19.9489 43.2094 19.9995 43.2495 20.0551H42.5732C42.5732 20.0096 42.5632 19.959 42.5431 19.9085L42.2125 18.9531H40.9149ZM41.0051 18.7004H42.1123L41.5512 17.1182L41.0051 18.7004ZM43.8807 17.199V19.8883C43.8807 19.9489 43.8907 20.0045 43.9058 20.0601H43.5952C43.6102 20.0096 43.6202 19.954 43.6202 19.8883V16.7239C43.6202 16.6582 43.6102 16.6026 43.5952 16.5571H44.1463C44.1563 16.5924 44.1713 16.6278 44.2064 16.6784L46.1051 19.3524V16.7239C46.1051 16.6632 46.0951 16.6076 46.08 16.5571H46.3906C46.3756 16.5975 46.3706 16.6481 46.3656 16.7239V19.9034C46.3656 19.9742 46.3756 20.0248 46.3906 20.0601H45.8847C45.8746 20.0298 45.8496 19.9894 45.8045 19.9287L43.8807 17.199ZM48.6751 16.5015C49.1861 16.5015 49.5919 16.643 49.8925 16.9261C50.2231 17.2445 50.3835 17.6995 50.3835 18.301C50.3835 18.8924 50.2231 19.3474 49.9125 19.6608C49.6169 19.959 49.1961 20.1056 48.6651 20.1056C48.104 20.1056 47.6832 19.9439 47.3976 19.6254C47.1071 19.3019 46.9618 18.847 46.9618 18.2656C46.9618 17.8966 47.0319 17.5782 47.1672 17.3052C47.4427 16.7795 47.9437 16.5065 48.6751 16.5015ZM48.6801 16.7694C48.2944 16.7694 48.0138 16.916 47.8335 17.2041C47.6681 17.472 47.588 17.8259 47.588 18.2707C47.588 19.3069 47.9537 19.8276 48.6851 19.8276C49.0509 19.8276 49.3264 19.681 49.5168 19.3929C49.6069 19.2564 49.6721 19.0997 49.7122 18.9278C49.7522 18.756 49.7723 18.5487 49.7723 18.3061C49.7673 17.2951 49.4066 16.7845 48.6801 16.7694ZM50.7392 19.8377L50.8544 19.4232C50.9446 19.5041 51.0247 19.5648 51.0848 19.6102C51.2652 19.7366 51.4656 19.8023 51.676 19.8023C51.8914 19.8023 52.0567 19.7417 52.177 19.6102C52.2872 19.494 52.3423 19.3575 52.3423 19.1957C52.3423 19.0037 52.2621 18.847 52.1068 18.7307C52.0367 18.6751 51.8614 18.579 51.5808 18.4476C51.2902 18.3111 51.0848 18.1696 50.9646 18.0331C50.8243 17.8713 50.7542 17.6843 50.7542 17.472C50.7542 17.2799 50.8093 17.108 50.9145 16.9513C51.1199 16.6531 51.4506 16.5015 51.9065 16.5015C52.167 16.5015 52.4375 16.5621 52.718 16.6885L52.6078 17.0626C52.3423 16.8755 52.0968 16.7845 51.8714 16.7845C51.691 16.7845 51.5508 16.8401 51.4405 16.9513C51.3504 17.0474 51.3003 17.1687 51.3003 17.3052C51.3003 17.4467 51.3454 17.563 51.4405 17.654C51.5357 17.745 51.7261 17.8562 52.0217 17.9927C52.3423 18.1393 52.5577 18.2859 52.6729 18.4274C52.8132 18.6043 52.8884 18.8116 52.8884 19.0441C52.8884 19.2412 52.8332 19.4283 52.7331 19.6001C52.5277 19.9439 52.177 20.1157 51.691 20.1157C51.5157 20.1157 51.3554 20.0955 51.2151 20.0551C51.0798 20.0045 50.9195 19.9338 50.7392 19.8377ZM56.3802 16.5015C56.8912 16.5015 57.302 16.643 57.5976 16.9261C57.9282 17.2445 58.0885 17.6995 58.0885 18.301C58.0885 18.8924 57.9332 19.3474 57.6176 19.6608C57.322 19.959 56.9012 20.1056 56.3652 20.1056C55.8091 20.1056 55.3833 19.9439 55.0977 19.6254C54.8071 19.3019 54.6618 18.847 54.6618 18.2656C54.6618 17.8966 54.732 17.5782 54.8672 17.3052C55.1478 16.7795 55.6488 16.5065 56.3802 16.5015ZM56.3852 16.7694C56.0045 16.7694 55.7189 16.916 55.5386 17.2041C55.3783 17.472 55.2931 17.8259 55.2931 18.2707C55.2931 19.3069 55.6588 19.8276 56.3952 19.8276C56.7609 19.8276 57.0365 19.681 57.2269 19.3929C57.317 19.2564 57.3822 19.0997 57.4223 18.9278C57.4623 18.756 57.4824 18.5487 57.4824 18.3061C57.4774 17.2951 57.1116 16.7845 56.3852 16.7694ZM58.6697 16.552H59.7418C60.1376 16.552 60.4732 16.6329 60.7538 16.7946C61.0093 16.9412 61.1996 17.1434 61.3249 17.4012C61.4551 17.6641 61.5203 17.9522 61.5203 18.2707C61.5203 18.756 61.39 19.1553 61.1345 19.4738C60.8189 19.8579 60.4081 20.0551 59.8971 20.0551H58.6747C58.6897 20.0045 58.6947 19.9489 58.6947 19.8832V16.7138C58.6947 16.6531 58.6847 16.5975 58.6697 16.552ZM59.2759 19.7518H59.7468C60.0574 19.7518 60.3029 19.6608 60.4883 19.4738C60.6135 19.3474 60.7087 19.1957 60.7688 19.0239C60.854 18.7863 60.8941 18.5335 60.8941 18.2656C60.8941 17.7197 60.7237 17.3204 60.378 17.0676C60.1726 16.916 59.9271 16.8401 59.6516 16.8401H59.2709V19.7518H59.2759ZM63.6494 16.5015C64.1604 16.5015 64.5713 16.643 64.8668 16.9261C65.1975 17.2445 65.3578 17.6995 65.3578 18.301C65.3578 18.8924 65.2025 19.3474 64.8869 19.6608C64.5913 19.959 64.1705 20.1056 63.6344 20.1056C63.0783 20.1056 62.6525 19.9439 62.3669 19.6254C62.0764 19.3019 61.9261 18.847 61.9261 18.2656C61.9261 17.8966 61.9962 17.5782 62.1365 17.3052C62.417 16.7795 62.918 16.5065 63.6494 16.5015ZM63.6494 16.7694C63.2637 16.7694 62.9831 16.916 62.8028 17.2041C62.6375 17.472 62.5573 17.8259 62.5573 18.2707C62.5573 19.3069 62.923 19.8276 63.6594 19.8276C64.0252 19.8276 64.3057 19.681 64.4911 19.3929C64.5813 19.2564 64.6464 19.0997 64.6865 18.9278C64.7266 18.756 64.7466 18.5487 64.7466 18.3061C64.7416 17.2951 64.3809 16.7845 63.6494 16.7694ZM66.2145 17.199V19.8883C66.2145 19.9489 66.2245 20.0045 66.2395 20.0601H65.9289C65.9439 20.0096 65.9539 19.954 65.9539 19.8883V16.7239C65.9539 16.6582 65.9439 16.6026 65.9289 16.5571H66.485C66.49 16.5924 66.51 16.6278 66.5451 16.6784L68.4388 19.3524V16.7239C68.4388 16.6632 68.4288 16.6076 68.4138 16.5571H68.7244C68.7094 16.5975 68.7043 16.6481 68.6993 16.7239V19.9034C68.6993 19.9742 68.7094 20.0248 68.7244 20.0601H68.2184C68.2084 20.0298 68.1833 19.9894 68.1382 19.9287L66.2145 17.199ZM68.9799 16.552H71.4998V16.8705C71.4146 16.8553 71.3445 16.8452 71.2844 16.8452H70.5379V19.8832C70.5379 19.9439 70.5479 19.9995 70.558 20.0551H69.9317C69.9468 20.0045 69.9518 19.9489 69.9518 19.8832V16.8452H69.2003C69.1251 16.8452 69.055 16.8553 68.9749 16.8705V16.552H68.9799ZM73.2232 16.5015C73.7342 16.5015 74.145 16.643 74.4406 16.9261C74.7712 17.2445 74.9315 17.6995 74.9315 18.301C74.9315 18.8924 74.7762 19.3474 74.4606 19.6608C74.165 19.959 73.7442 20.1056 73.2132 20.1056C72.6521 20.1056 72.2313 19.9439 71.9457 19.6254C71.6551 19.3019 71.5098 18.847 71.5098 18.2656C71.5098 17.8966 71.58 17.5782 71.7152 17.3052C71.9958 16.7795 72.4968 16.5065 73.2232 16.5015ZM73.2282 16.7694C72.8424 16.7694 72.5619 16.916 72.3815 17.2041C72.2212 17.472 72.1361 17.8259 72.1361 18.2707C72.1361 19.3069 72.5018 19.8276 73.2382 19.8276C73.6039 19.8276 73.8795 19.681 74.0698 19.3929C74.16 19.2564 74.2252 19.0997 74.2652 18.9278C74.3053 18.756 74.3254 18.5487 74.3254 18.3061C74.3203 17.2951 73.9546 16.7845 73.2282 16.7694ZM77.2811 20.0551H75.5177C75.5327 20.0045 75.5377 19.9489 75.5377 19.8933V16.7239C75.5377 16.6632 75.5277 16.6076 75.5177 16.5571H76.1439C76.1289 16.6076 76.1239 16.6632 76.1239 16.7239V19.7771H77.1058C77.1809 19.7771 77.236 19.7669 77.2811 19.7518V20.0551ZM79.0646 16.5015C79.5756 16.5015 79.9864 16.643 80.282 16.9261C80.6127 17.2445 80.773 17.6995 80.773 18.301C80.773 18.8924 80.6177 19.3474 80.3021 19.6608C80.0065 19.959 79.5857 20.1056 79.0496 20.1056C78.4935 20.1056 78.0677 19.9439 77.7821 19.6254C77.4915 19.3019 77.3463 18.847 77.3463 18.2656C77.3463 17.8966 77.4164 17.5782 77.5517 17.3052C77.8372 16.7795 78.3382 16.5065 79.0646 16.5015ZM79.0696 16.7694C78.6839 16.7694 78.4033 16.916 78.223 17.2041C78.0576 17.472 77.9775 17.8259 77.9775 18.2707C77.9775 19.3069 78.3432 19.8276 79.0746 19.8276C79.4404 19.8276 79.7209 19.681 79.9063 19.3929C79.9965 19.2564 80.0616 19.0997 80.1017 18.9278C80.1417 18.756 80.1618 18.5487 80.1618 18.3061C80.1618 17.2951 79.7961 16.7845 79.0696 16.7694ZM78.7691 16.3498L79.1247 15.541H79.5806L79.0346 16.3498H78.7691ZM83.9492 16.6885V17.1232C83.6286 16.9059 83.313 16.7946 83.0023 16.7946C82.6617 16.7946 82.3911 16.9109 82.1807 17.1434C82.0505 17.29 81.9603 17.4467 81.9152 17.6237C81.8551 17.8309 81.825 18.0685 81.825 18.3212C81.825 18.8469 81.9403 19.2362 82.1757 19.494C82.3711 19.7113 82.6316 19.8175 82.9522 19.8175C83.1426 19.8175 83.318 19.767 83.4883 19.6709V18.3061C83.4883 18.2404 83.4783 18.1848 83.4683 18.1342H84.0744C84.0644 18.1898 84.0544 18.2454 84.0544 18.3061V19.6507C84.0544 19.7316 84.0694 19.7973 84.0895 19.8579C83.7789 19.9641 83.5534 20.0298 83.4081 20.0601C83.2679 20.0854 83.0925 20.1056 82.8921 20.1056C82.5314 20.1056 82.2358 20.0399 82.0054 19.9085C81.7298 19.7518 81.5244 19.5243 81.3892 19.221C81.2689 18.9582 81.2088 18.6549 81.2088 18.3111C81.2088 17.6995 81.3992 17.2294 81.7699 16.8957C82.0755 16.6278 82.4763 16.4913 82.9773 16.4913C83.2779 16.5015 83.6035 16.5621 83.9492 16.6885ZM84.7608 16.552H85.387C85.377 16.5924 85.367 16.648 85.367 16.7188V19.8883C85.367 19.959 85.377 20.0146 85.387 20.0601H84.7608C84.7758 20.0096 84.7808 19.954 84.7808 19.8883V16.7188C84.7808 16.6582 84.7758 16.6026 84.7608 16.552ZM88.5883 16.6531V17.1283C88.433 17.0019 88.2977 16.9109 88.1775 16.8654C88.0572 16.8149 87.917 16.7896 87.7617 16.7896C87.3809 16.7896 87.0953 16.9362 86.895 17.2243C86.7046 17.5023 86.6094 17.8562 86.6094 18.2909C86.6094 18.756 86.7196 19.125 86.935 19.3979C87.1455 19.6709 87.426 19.8074 87.7817 19.8074C87.937 19.8074 88.0773 19.7771 88.1925 19.7265C88.3127 19.6709 88.443 19.5698 88.5883 19.4333V19.8933C88.4229 19.9742 88.2726 20.0248 88.1424 20.0551C88.0121 20.0854 87.8568 20.1006 87.6815 20.1006C87.1454 20.1006 86.7347 19.9489 86.4491 19.6507C86.1435 19.3272 85.9882 18.8672 85.9882 18.2707C85.9882 17.8916 86.0533 17.5782 86.1786 17.3355C86.4691 16.7744 86.9951 16.4913 87.7667 16.4913C88.0572 16.5015 88.3328 16.552 88.5883 16.6531ZM90.5321 16.5015C91.0431 16.5015 91.4539 16.643 91.7495 16.9261C92.0801 17.2445 92.2404 17.6995 92.2404 18.301C92.2404 18.8924 92.0851 19.3474 91.7695 19.6608C91.4739 19.959 91.0531 20.1056 90.522 20.1056C89.9609 20.1056 89.5401 19.9439 89.2546 19.6254C88.964 19.3019 88.8187 18.847 88.8187 18.2656C88.8187 17.8966 88.8889 17.5782 89.0241 17.3052C89.3047 16.7795 89.8057 16.5065 90.5321 16.5015ZM90.5371 16.7694C90.1513 16.7694 89.8708 16.916 89.6904 17.2041C89.5251 17.472 89.445 17.8259 89.445 18.2707C89.445 19.3069 89.8157 19.8276 90.5471 19.8276C90.9128 19.8276 91.1884 19.681 91.3787 19.3929C91.4689 19.2564 91.534 19.0997 91.5741 18.9278C91.6142 18.756 91.6342 18.5487 91.6342 18.3061C91.6292 17.2951 91.2635 16.7845 90.5371 16.7694ZM92.6011 19.8377L92.7163 19.4232C92.8115 19.5041 92.8867 19.5648 92.9468 19.6102C93.1322 19.7366 93.3276 19.8023 93.538 19.8023C93.7534 19.8023 93.9187 19.7417 94.044 19.6102C94.1542 19.494 94.2043 19.3575 94.2043 19.1957C94.2043 19.0037 94.1241 18.847 93.9688 18.7307C93.8987 18.6751 93.7233 18.579 93.4428 18.4476C93.1522 18.3111 92.9518 18.1696 92.8316 18.0331C92.6913 17.8713 92.6212 17.6843 92.6212 17.472C92.6212 17.2799 92.6713 17.108 92.7815 16.9513C92.9869 16.6531 93.3175 16.5015 93.7784 16.5015C94.0389 16.5015 94.3095 16.5621 94.585 16.6885L94.4748 17.0626C94.2093 16.8755 93.9638 16.7845 93.7384 16.7845C93.563 16.7845 93.4177 16.8401 93.3075 16.9513C93.2174 17.0474 93.1672 17.1687 93.1672 17.3052C93.1672 17.4467 93.2123 17.563 93.3075 17.654C93.4027 17.745 93.5931 17.8562 93.8887 17.9927C94.2093 18.1393 94.4247 18.2859 94.5399 18.4274C94.6852 18.6043 94.7553 18.8116 94.7553 19.0441C94.7553 19.2412 94.7052 19.4283 94.6 19.6001C94.3946 19.9439 94.0439 20.1157 93.563 20.1157C93.3877 20.1157 93.2274 20.0955 93.0871 20.0551C92.9418 20.0045 92.7815 19.9338 92.6011 19.8377Z" fill="white"/>
<path fillRule="evenodd" clipRule="evenodd" d="M9.89844 14.477C12.0026 17.419 16.5114 16.3928 21.5913 14.4214C23.8207 13.557 25.0581 12.4045 27.2975 13.8957C28.059 14.4012 28.6802 15.1493 29.1361 16.1906C25.6543 17.6768 22.1775 19.168 18.6957 20.6541C13.8762 21.377 11.1559 19.0062 9.89844 14.477Z" fill="white"/>
<path fillRule="evenodd" clipRule="evenodd" d="M4.75586 1.45117C10.1765 1.47139 15.4117 1.48656 20.8323 1.50678C22.6108 2.43183 23.6178 4.43359 23.9935 6.70326C20.0558 5.9804 16.7794 6.37974 13.503 6.69315C11.0582 6.92568 9.96604 7.39073 7.86192 6.03601C6.0133 4.84304 4.86608 3.36194 4.75586 1.45117Z" fill="white"/>
<path fillRule="evenodd" clipRule="evenodd" d="M0 6.02069C3.13614 5.74773 4.84949 6.83959 6.22719 8.14377C8.69703 10.4741 8.08583 10.7723 8.92247 13.9519C10.1048 18.4559 12.0686 22.1005 18.0553 21.3321C14.5735 22.2319 12.4544 24.9464 7.61489 24.0315C0.601153 22.1257 2.53997 12.026 0 6.02069Z" fill="white"/>
<path fillRule="evenodd" clipRule="evenodd" d="M21.7129 1.49805C22.9002 1.53849 24.1527 1.5031 25.3901 1.65475C28.401 2.02376 28.8118 4.40969 29.2877 7.49321C29.5933 9.4798 29.8689 11.6433 30.5602 13.4378C28.5713 13.5794 27.0584 12.7605 26.0313 10.966C24.5885 7.81167 25.5704 3.77277 21.7129 1.49805Z" fill="white"/>
<path fillRule="evenodd" clipRule="evenodd" d="M151.911 2.44659V0.707693H152.642C152.828 0.707693 152.958 0.722858 153.043 0.753188C153.128 0.783517 153.193 0.839121 153.243 0.92C153.293 1.00088 153.318 1.09187 153.318 1.19297C153.318 1.3244 153.278 1.43055 153.203 1.51648C153.128 1.60242 153.013 1.65297 152.863 1.67824C152.938 1.72374 152.998 1.76923 153.053 1.82484C153.103 1.88044 153.168 1.97143 153.253 2.10791L153.464 2.44659H153.048L152.798 2.06747C152.707 1.93099 152.647 1.84505 152.612 1.81473C152.582 1.77934 152.547 1.75407 152.507 1.74396C152.472 1.72879 152.412 1.72374 152.332 1.72374H152.261V2.45165H151.911V2.44659ZM152.597 0C153.028 0 153.419 0.176923 153.704 0.46C153.99 0.743077 154.16 1.13736 154.16 1.57209C154.16 2.00681 153.985 2.40615 153.704 2.68923C153.424 2.97736 153.033 3.14923 152.597 3.14923C152.166 3.14923 151.776 2.97231 151.495 2.68923C151.209 2.40615 151.039 2.01187 151.039 1.57209C151.039 1.13736 151.214 0.743077 151.495 0.46C151.776 0.176923 152.166 0 152.597 0ZM153.504 0.667252C153.273 0.434725 152.953 0.288132 152.602 0.288132C152.251 0.288132 151.931 0.434725 151.695 0.667252C151.465 0.89978 151.32 1.2233 151.32 1.57714C151.32 1.93604 151.465 2.25451 151.695 2.48703C151.926 2.72462 152.246 2.86615 152.602 2.86615C152.958 2.86615 153.273 2.72462 153.504 2.48703C153.734 2.25451 153.88 1.93099 153.88 1.57714C153.88 1.2233 153.734 0.89978 153.504 0.667252ZM152.256 1.44066H152.517C152.682 1.44066 152.787 1.4356 152.828 1.42044C152.868 1.40528 152.898 1.38 152.923 1.34462C152.943 1.30923 152.958 1.26374 152.958 1.21319C152.958 1.15253 152.943 1.10703 152.913 1.07165C152.883 1.03626 152.838 1.01099 152.782 1.00088C152.752 0.995826 152.667 0.995825 152.527 0.995825H152.256V1.44066Z" fill="white"/>
</svg>
