<svg width="32" height="32" viewBox="0 0 32 32" fill="none" xmlns="http://www.w3.org/2000/svg">
<circle cx="16" cy="16" r="16" fill="#8A1724"/>
<path fill-rule="evenodd" clip-rule="evenodd" d="M12.4785 17.4524C13.8555 19.3605 16.8063 18.695 20.1309 17.4163C21.5899 16.8557 22.3997 16.1081 23.8653 17.0753C24.3636 17.4032 24.7702 17.8884 25.0685 18.5638C22.7899 19.5278 20.5145 20.495 18.2358 21.4589C15.0818 21.9277 13.3015 20.39 12.4785 17.4524Z" fill="white"/>
<path fill-rule="evenodd" clip-rule="evenodd" d="M9.11328 9C12.6608 9.01311 16.087 9.02295 19.6344 9.03607C20.7984 9.63606 21.4574 10.9344 21.7033 12.4065C19.1263 11.9377 16.982 12.1967 14.8378 12.4C13.2378 12.5508 12.5231 12.8524 11.146 11.9737C9.93621 11.2 9.18541 10.2393 9.11328 9Z" fill="white"/>
<path fill-rule="evenodd" clip-rule="evenodd" d="M6 11.9629C8.05243 11.7859 9.17373 12.494 10.0754 13.3399C11.6917 14.8514 11.2917 15.0448 11.8393 17.1071C12.613 20.0284 13.8983 22.3923 17.8162 21.8939C15.5376 22.4775 14.1507 24.2382 10.9835 23.6447C6.39342 22.4087 7.66227 15.8579 6 11.9629Z" fill="white"/>
<path fill-rule="evenodd" clip-rule="evenodd" d="M20.209 9.03125C20.986 9.05748 21.8057 9.03453 22.6155 9.13289C24.586 9.37223 24.8548 10.9197 25.1663 12.9197C25.3663 14.2082 25.5466 15.6115 25.9991 16.7754C24.6975 16.8672 23.7073 16.3361 23.0352 15.1722C22.0909 13.1263 22.7335 10.5066 20.209 9.03125Z" fill="white"/>
</svg>
