<svg width="20" height="20" viewBox="0 0 20 20" fill="none" xmlns="http://www.w3.org/2000/svg">
<path d="M8.07866 17.2661L7.05122 16.6953C6.54959 16.4166 5.94255 16.4042 5.42995 16.6622C4.27704 17.2424 2.91706 16.4044 2.91697 15.1137L2.91644 7.66693C2.91624 4.83832 2.91614 3.42401 3.79483 2.54526C4.67353 1.6665 6.08783 1.6665 8.91644 1.6665H11.0827C13.9111 1.6665 15.3253 1.6665 16.204 2.54518C17.0827 3.42386 17.0827 4.83808 17.0827 7.6665V15.1129C17.0827 16.404 15.7224 17.2424 14.569 16.6622C14.0562 16.4042 13.4491 16.4167 12.9473 16.6954L11.92 17.2661L11.92 17.2661C11.4694 17.5164 11.2442 17.6416 11.0159 17.7238C10.3588 17.9604 9.63986 17.9604 8.98284 17.7238C8.75454 17.6416 8.52925 17.5164 8.07867 17.2661L8.07866 17.2661Z" stroke="#767676" stroke-width="1.3" stroke-linecap="round" stroke-linejoin="round"/>
<path d="M13.332 5L6.66536 5" stroke="#767676" stroke-width="1.3" stroke-linejoin="round"/>
<path d="M9.16602 8.33325H6.66602" stroke="#767676" stroke-width="1.3" stroke-linejoin="round"/>
<path d="M12.082 8.22884C11.3917 8.22884 10.832 8.71853 10.832 9.32259C10.832 9.92665 11.3917 10.4163 12.082 10.4163C12.7724 10.4163 13.332 10.906 13.332 11.5101C13.332 12.1142 12.7724 12.6038 12.082 12.6038M12.082 8.22884C12.6263 8.22884 13.0893 8.5332 13.2609 8.95801M12.082 8.22884V7.08301M12.082 12.6038C11.5378 12.6038 11.0748 12.2995 10.9032 11.8747M12.082 12.6038V13.7497" stroke="#767676" stroke-width="1.3" stroke-linecap="round" stroke-linejoin="round"/>
</svg>
