<svg width="20" height="14" viewBox="0 0 20 14" fill="none" xmlns="http://www.w3.org/2000/svg">
<path d="M9.76263 0.0197371C9.81982 0.0034015 9.88076 -0.00913513 9.93927 0.00872002C11.3213 0.373991 12.665 0.874505 13.9787 1.43865C14.1047 1.49545 14.2351 1.54255 14.3568 1.60885C14.2562 2.33046 14.1478 3.05112 14.057 3.77388C14.1755 3.71784 14.2851 3.64528 14.3999 3.58184C14.9949 3.24088 15.6034 2.92367 16.2236 2.63172C16.2778 2.60892 16.34 2.56258 16.3983 2.60171C17.4354 3.1252 18.4438 3.70436 19.4421 4.29909C19.5488 4.36424 19.6577 4.4254 19.7617 4.49492C19.4387 4.73198 19.1109 4.96258 18.7911 5.20438C17.757 5.98089 16.7571 6.80375 15.7904 7.66421C15.7334 7.72405 15.65 7.67352 15.5827 7.66402C13.8771 7.26779 12.158 6.93234 10.4297 6.65483C10.2566 6.63146 10.0851 6.59461 9.91086 6.58132C9.97388 6.64305 10.0469 6.69263 10.1183 6.74353C11.2999 7.6135 12.4631 8.50891 13.5974 9.4408C13.632 9.46967 13.6659 9.49949 13.7001 9.52913C13.5669 9.6714 13.4172 9.79657 13.2808 9.93562C12.1731 11.001 11.064 12.0655 9.95676 13.1319C9.93193 13.1539 9.90672 13.1756 9.88152 13.1974C9.78897 13.1254 9.71109 13.0371 9.6272 12.9558C7.70567 11.0869 5.76608 9.23509 3.75144 7.46799C3.78512 7.38575 3.82462 7.30616 3.86581 7.22752C4.39383 6.18204 4.92863 5.13923 5.51327 4.12452C5.57214 4.01872 5.64268 3.91938 5.69253 3.80864C5.59453 3.85195 5.50405 3.91007 5.41131 3.96364C4.33308 4.59104 3.27534 5.25377 2.23491 5.94309C2.17867 5.97861 2.12694 6.02572 2.06186 6.04414C1.99978 6.00786 1.94843 5.95601 1.89218 5.91175C1.33538 5.46157 0.758641 5.03703 0.170802 4.62941C0.113053 4.58971 0.0558682 4.54925 0 4.5067C0.118508 4.41856 0.251313 4.35303 0.376217 4.27458C2.04154 3.28343 3.74674 2.35667 5.51101 1.55718C5.58494 1.52261 5.66037 1.48177 5.74426 1.48234C6.9807 1.48367 8.21713 1.53192 9.45018 1.62366C9.57415 1.63069 9.69773 1.64968 9.82207 1.64361C9.78671 1.62176 9.75059 1.60125 9.7126 1.58472C8.98198 1.28327 8.24046 1.00899 7.49179 0.757117C7.60541 0.703741 7.72692 0.67126 7.84468 0.629092C8.47955 0.411791 9.11535 0.196389 9.76263 0.0197371ZM9.83129 1.68179C8.77243 2.15419 7.73464 2.67446 6.71547 3.22854C6.38477 3.41222 6.05069 3.59058 5.72621 3.78527C5.8069 3.83903 5.8908 3.88747 5.97394 3.93723C6.67916 4.36348 7.36952 4.81423 8.05066 5.27827C8.66954 5.6973 9.27581 6.13494 9.88415 6.56916C9.98404 6.50477 10.0773 6.43107 10.1742 6.36231C11.3555 5.50925 12.5566 4.68183 13.8045 3.9304C13.8845 3.88291 13.9672 3.83941 14.0408 3.78148C12.7285 2.97799 11.3546 2.27803 9.93927 1.6797C9.90447 1.66279 9.86534 1.66412 9.83129 1.68179Z" fill="#767676"/>
<path d="M9.4579 2.43258C9.92535 2.38908 10.4014 2.41852 10.8563 2.53895C11.1481 2.61569 11.4313 2.73231 11.6832 2.9008C11.8612 3.02104 12.0235 3.17072 12.1334 3.35781C12.247 3.54985 12.2978 3.78653 12.2411 4.00592C12.1793 4.2652 12.0017 4.47908 11.798 4.64073C11.4861 4.88405 11.1108 5.03164 10.7286 5.11769C10.1001 5.2573 9.43702 5.24343 8.8157 5.07324C8.43835 4.96763 8.07041 4.79496 7.78392 4.52011C7.59262 4.32769 7.44551 4.06746 7.45774 3.78729C7.4647 3.48983 7.64096 3.22542 7.85879 3.03756C8.30517 2.66051 8.8883 2.49336 9.4579 2.43258Z" fill="#767676"/>
</svg>
