<svg width="20" height="20" viewBox="0 0 20 20" fill="none" xmlns="http://www.w3.org/2000/svg">
<path d="M11.3922 6.05756C10.4818 6.3135 9.51805 6.3135 8.60767 6.05756" stroke="#8D8D8D" stroke-linecap="round" stroke-linejoin="round"/>
<path fill-rule="evenodd" clip-rule="evenodd" d="M16.0708 5.34302V5.34302C15.1096 3.74069 13.1946 2.97954 11.3955 3.48558L10.6002 3.70901C10.2075 3.81905 9.79234 3.81905 9.40051 3.70901L8.60518 3.48558C6.80526 2.97954 4.89113 3.74069 3.92906 5.34302V5.34302C3.5414 5.98912 3.33631 6.7286 3.33547 7.48308V7.56061C3.33215 10.1233 3.84819 12.6602 4.85111 15.0187L5.12456 15.6607C5.38467 16.2717 5.98575 16.6694 6.65103 16.6694V16.6694C7.33048 16.6694 7.94157 16.2542 8.1925 15.6231L8.98367 13.6306C9.14957 13.2121 9.55224 12.9379 9.99992 12.9379V12.9379C10.4476 12.9379 10.8503 13.2121 11.0162 13.6306L11.8073 15.6231C12.0583 16.2542 12.6694 16.6694 13.3488 16.6694V16.6694C14.0141 16.6694 14.6152 16.2717 14.8753 15.6598L15.1487 15.0179C16.1525 12.6594 16.6677 10.1225 16.6644 7.55978V7.48225C16.6635 6.7286 16.4584 5.98912 16.0708 5.34302Z" stroke="#767676" stroke-width="1.5" stroke-linecap="round" stroke-linejoin="round"/>
</svg>
