<svg width="20" height="20" viewBox="0 0 20 20" fill="none" xmlns="http://www.w3.org/2000/svg">
<path d="M8.07031 8.07068C8.26783 7.21938 9.0432 6.62913 9.91636 6.66537C10.8936 6.61124 11.7313 7.35591 11.7921 8.33273C11.7921 9.58651 9.99972 10.0001 9.99972 10.8338" stroke="#494949" stroke-width="1.3" stroke-linecap="round" stroke-linejoin="round"/>
<path d="M10.105 13.1264C10.105 13.184 10.0583 13.2305 10.0008 13.2305C9.94326 13.2305 9.89664 13.1839 9.89661 13.1264C9.89659 13.0688 9.94317 13.0222 10.0007 13.0221C10.0284 13.0221 10.0549 13.033 10.0745 13.0526C10.0941 13.0722 10.1051 13.0988 10.105 13.1264" stroke="#494949" stroke-width="1.3" stroke-linecap="round" stroke-linejoin="round"/>
<path fill-rule="evenodd" clip-rule="evenodd" d="M3.85653 14.3003C1.62061 11.1089 2.1952 6.7378 5.17995 4.23263C8.1647 1.72746 12.5692 1.91948 15.3246 4.67489C18.0801 7.4303 18.2721 11.8348 15.7669 14.8196C13.2617 17.8043 8.89062 18.3789 5.69918 16.143L3.33008 16.6694L3.85653 14.3003Z" stroke="#494949" stroke-width="1.3" stroke-linecap="round" stroke-linejoin="round"/>
</svg>
