<svg width="20" height="20" viewBox="0 0 20 20" fill="none" xmlns="http://www.w3.org/2000/svg">
<path d="M11.666 1.8332C11.1275 1.72389 10.5701 1.6665 9.99935 1.6665C5.39698 1.6665 1.66602 5.39746 1.66602 9.99984C1.66602 14.6022 5.39698 18.3332 9.99935 18.3332C14.6017 18.3332 18.3327 14.6022 18.3327 9.99984C18.3327 9.42906 18.2753 8.87169 18.166 8.33317" stroke="#767676" stroke-width="1.3" stroke-linejoin="round"/>
<path d="M14.1703 5.82971L13.5203 5.82978L13.5204 6.47971H14.1703V5.82971ZM14.1703 5.82971L14.63 6.28932L18.793 2.12611L18.3333 1.6665L17.8737 1.2069L13.7107 5.3701L14.1703 5.82971ZM17.9168 5.82971V5.17971H14.1703V5.82971V6.47971H17.9168V5.82971ZM14.1703 5.82971L14.8203 5.82964L14.8199 2.07954L14.1699 2.07961L13.5199 2.07968L13.5203 5.82978L14.1703 5.82971Z" fill="#767676"/>
<path d="M9.9987 7.5C9.07822 7.5 8.33203 8.05964 8.33203 8.75C8.33203 9.44036 9.07822 10 9.9987 10C10.9192 10 11.6654 10.5596 11.6654 11.25C11.6654 11.9404 10.9192 12.5 9.9987 12.5M9.9987 7.5C10.7244 7.5 11.3417 7.84784 11.5705 8.33333M9.9987 7.5V6.25M9.9987 12.5C9.27302 12.5 8.65567 12.1522 8.42687 11.6667M9.9987 12.5V13.75" stroke="#767676" stroke-width="1.3" stroke-linejoin="round"/>
</svg>
