<svg width="20" height="20" viewBox="0 0 20 20" fill="none" xmlns="http://www.w3.org/2000/svg">
<path d="M10.7872 8.08003C11.6176 8.91038 11.6176 10.2559 10.7872 11.0863C9.95687 11.9166 8.61131 11.9166 7.78096 11.0863C6.95062 10.2559 6.95062 8.91038 7.78096 8.08003C8.61047 7.24969 9.95687 7.24969 10.7872 8.08003" stroke="#494949" stroke-width="1.3" stroke-linecap="round" stroke-linejoin="round"/>
<path d="M14.599 9.58311C14.599 9.34885 14.5782 9.11542 14.5499 8.88866L15.8004 7.91075C16.0772 7.69316 16.153 7.3055 15.9771 7.00037L14.865 5.07707C14.6891 4.77277 14.3164 4.64439 13.9896 4.77444L12.8725 5.22296C12.6507 5.31217 12.4031 5.27465 12.203 5.14293C12.0296 5.02871 11.8512 4.9245 11.6662 4.83113C11.4527 4.72442 11.2968 4.52934 11.2626 4.29341L11.0926 3.10291C11.0434 2.75527 10.7449 2.49683 10.3931 2.49683H8.17553C7.82455 2.49683 7.52609 2.75527 7.47607 3.10291L7.30433 4.29508C7.27099 4.53017 7.11592 4.72442 6.90417 4.83197C6.71826 4.92701 6.53818 5.03288 6.36561 5.1471C6.16636 5.27798 5.91959 5.313 5.69867 5.22463L4.57987 4.77444C4.25306 4.64355 3.87957 4.77194 3.7045 5.07707L2.59237 7.00037C2.41563 7.3055 2.4915 7.69399 2.76828 7.91075L4.0188 8.88866C3.99045 9.11542 3.96878 9.34885 3.96878 9.58311C3.96878 9.81654 3.98962 10.0508 4.0188 10.2776L2.76828 11.2555C2.4915 11.4731 2.41563 11.8607 2.59154 12.1659L3.70367 14.0892C3.87957 14.3934 4.25223 14.5218 4.57903 14.3918L5.69867 13.9424C5.91959 13.8532 6.16636 13.8891 6.36478 14.0208C6.53818 14.1358 6.71742 14.2409 6.90333 14.3359C7.11592 14.4435 7.27015 14.6369 7.30433 14.8728L7.47524 16.0641C7.52526 16.411 7.82372 16.6694 8.1747 16.6694H9.28433" stroke="#494949" stroke-width="1.3" stroke-linecap="round" stroke-linejoin="round"/>
<path d="M12.502 13.3348H17.504" stroke="#494949" stroke-width="1.3" stroke-linecap="round" stroke-linejoin="round"/>
<path d="M12.502 15.4188H17.504" stroke="#494949" stroke-width="1.3" stroke-linecap="round" stroke-linejoin="round"/>
<path d="M12.502 17.503H17.504" stroke="#494949" stroke-width="1.3" stroke-linecap="round" stroke-linejoin="round"/>
</svg>
