<svg width="20" height="20" viewBox="0 0 20 20" fill="none" xmlns="http://www.w3.org/2000/svg">
<path d="M9.99935 18.3332H7.66607C4.83762 18.3332 3.42339 18.3332 2.54471 17.4545C1.66603 16.5758 1.66604 15.1616 1.66607 12.3331L1.66611 7.66645C1.66613 4.83805 1.66615 3.42384 2.54482 2.54517C3.4235 1.6665 4.8377 1.6665 7.66611 1.6665H10.666C13.4944 1.6665 14.9087 1.6665 15.7873 2.54518C16.666 3.42386 16.666 4.83808 16.666 7.6665V8.33317" stroke="#767676" stroke-width="1.3" stroke-linejoin="round"/>
<path d="M5.83203 5.83301H12.4987" stroke="#767676" stroke-width="1.3"/>
<path d="M5.83203 10H10.832" stroke="#767676" stroke-width="1.3"/>
<path d="M18.3333 18.333H12.5C12.5 16.7222 13.8058 15.4163 15.4167 15.4163C17.0275 15.4163 18.3333 16.7222 18.3333 18.333Z" stroke="#767676" stroke-width="1.3"/>
<path d="M16.875 12.2914C16.875 13.0968 16.2221 13.7497 15.4167 13.7497C14.6113 13.7497 13.9583 13.0968 13.9583 12.2914C13.9583 11.4859 14.6113 10.833 15.4167 10.833C16.2221 10.833 16.875 11.4859 16.875 12.2914Z" stroke="#767676" stroke-width="1.3"/>
</svg>
