<svg width="20" height="20" viewBox="0 0 20 20" fill="none" xmlns="http://www.w3.org/2000/svg">
<path d="M6.4887 9.68754C6.4887 10.4354 5.85996 11.0417 5.08437 11.0417C4.30879 11.0417 3.68005 10.4354 3.68005 9.68754C3.68005 8.93966 4.30879 8.33337 5.08437 8.33337C5.85996 8.33337 6.4887 8.93966 6.4887 9.68754Z" fill="#494949"/>
<path d="M11.4038 9.68754C11.4038 10.4354 10.7751 11.0417 9.9995 11.0417C9.22391 11.0417 8.59518 10.4354 8.59518 9.68754C8.59518 8.93966 9.22391 8.33337 9.9995 8.33337C10.7751 8.33337 11.4038 8.93966 11.4038 9.68754Z" fill="#494949"/>
<path d="M16.3189 9.68754C16.3189 10.4354 15.6902 11.0417 14.9146 11.0417C14.139 11.0417 13.5103 10.4354 13.5103 9.68754C13.5103 8.93966 14.139 8.33337 14.9146 8.33337C15.6902 8.33337 16.3189 8.93966 16.3189 9.68754Z" fill="#494949"/>
</svg>
