<svg width="20" height="20" viewBox="0 0 20 20" fill="none" xmlns="http://www.w3.org/2000/svg">
<path d="M6.66667 15.8334H5C3.61929 15.8334 2.5 14.7141 2.5 13.3334V5.83337C2.5 4.45266 3.61929 3.33337 5 3.33337H15C16.3807 3.33337 17.5 4.45266 17.5 5.83337V10.8334" stroke="#767676" stroke-width="1.3" stroke-linecap="round" stroke-linejoin="round"/>
<path fill-rule="evenodd" clip-rule="evenodd" d="M14.1368 17.3778L16.5444 14.9702C16.6492 14.8654 16.6904 14.7128 16.6527 14.5696C16.615 14.4263 16.504 14.3138 16.3612 14.2741L13.0286 13.349C12.8838 13.3089 12.7287 13.3497 12.6225 13.4559C12.5163 13.5621 12.4755 13.7172 12.5157 13.8619L13.4407 17.1946C13.4804 17.3374 13.5929 17.4484 13.7362 17.4861C13.8795 17.5238 14.032 17.4825 14.1368 17.3778Z" stroke="#767676" stroke-width="1.3" stroke-linecap="round" stroke-linejoin="round"/>
<path d="M16.6666 17.5L15.3406 16.174" stroke="#767676" stroke-width="1.3" stroke-linecap="round" stroke-linejoin="round"/>
<path d="M10.4167 11.25L10.0001 10.8333" stroke="#767676" stroke-width="1.3" stroke-linecap="round" stroke-linejoin="round"/>
<path d="M13.3333 10.8334L13.75 10.4167" stroke="#767676" stroke-width="1.3" stroke-linecap="round" stroke-linejoin="round"/>
<path d="M9.58333 14.5834L10 14.1667" stroke="#767676" stroke-width="1.3" stroke-linecap="round" stroke-linejoin="round"/>
<path d="M2.5 7.50004H17.5" stroke="#767676" stroke-width="1.3" stroke-linecap="round" stroke-linejoin="round"/>
</svg>
