<svg width="16" height="16" viewBox="0 0 16 16" fill="none" xmlns="http://www.w3.org/2000/svg">
<path fill-rule="evenodd" clip-rule="evenodd" d="M8.00033 3.48584V3.48584C10.4937 3.48584 12.5143 5.50651 12.5143 7.99984V7.99984C12.5143 10.4932 10.4937 12.5138 8.00033 12.5138V12.5138C5.50699 12.5138 3.48633 10.4932 3.48633 7.99984V7.99984C3.48633 5.50651 5.50699 3.48584 8.00033 3.48584Z" stroke="#8A1724" stroke-width="1.2" stroke-linecap="round" stroke-linejoin="round"/>
<path d="M8.0013 8.2505V5.74316" stroke="#8A1724" stroke-width="1.2" stroke-linecap="round" stroke-linejoin="round"/>
<path d="M8.00064 10.0312C7.94531 10.0312 7.90064 10.0759 7.90131 10.1312C7.90131 10.1865 7.94597 10.2312 8.00131 10.2312C8.05664 10.2312 8.10131 10.1865 8.10131 10.1312C8.10131 10.0765 8.05664 10.0312 8.00064 10.0312" stroke="#8A1724" stroke-width="1.2" stroke-linecap="round" stroke-linejoin="round"/>
<path d="M13.5508 3.83789C15.4028 6.29922 15.4028 9.69989 13.5508 12.1612" stroke="#8A1724" stroke-width="1.2" stroke-linecap="round" stroke-linejoin="round"/>
<path d="M2.44564 12.162C0.59364 9.70062 0.59364 6.29996 2.44564 3.83862" stroke="#8A1724" stroke-width="1.2" stroke-linecap="round" stroke-linejoin="round"/>
</svg>
