<svg width="20" height="20" viewBox="0 0 20 20" fill="none" xmlns="http://www.w3.org/2000/svg">
<circle opacity="0.3" cx="10" cy="10" r="9.5" stroke="white"/>
<path fill-rule="evenodd" clip-rule="evenodd" d="M12.778 14.1663C12.203 14.1663 11.7363 13.6997 11.7363 13.1247L11.7363 6.87467C11.7363 6.29967 12.203 5.83301 12.778 5.83301C13.353 5.83301 13.8197 6.29967 13.8197 6.87467L13.8197 13.1247C13.8197 13.6997 13.353 14.1663 12.778 14.1663Z" fill="white"/>
<path fill-rule="evenodd" clip-rule="evenodd" d="M7.22135 14.1663C6.64635 14.1663 6.17969 13.6997 6.17969 13.1247L6.17969 6.87467C6.17969 6.29967 6.64635 5.83301 7.22135 5.83301C7.79635 5.83301 8.26302 6.29967 8.26302 6.87467L8.26302 13.1247C8.26302 13.6997 7.79635 14.1663 7.22135 14.1663Z" fill="white"/>
</svg>
