<svg width="17" height="18" viewBox="0 0 17 18" fill="none" xmlns="http://www.w3.org/2000/svg">
<path d="M5.69676 10.7559C2.7351 11.1459 0.600098 12.2334 0.600098 13.5167C0.600098 15.1275 3.9576 16.4334 8.1001 16.4334C12.2426 16.4334 15.6001 15.1275 15.6001 13.5167C15.6001 12.2334 13.4651 11.1459 10.5034 10.7559" stroke="#606060" stroke-width="1.2" stroke-linecap="round" stroke-linejoin="round"/>
<path fill-rule="evenodd" clip-rule="evenodd" d="M13.1001 5.46093C13.1001 2.77676 10.8618 0.600098 8.1001 0.600098C5.33843 0.600098 3.1001 2.77676 3.1001 5.46093C3.1001 9.10676 8.1001 13.1001 8.1001 13.1001C8.1001 13.1001 13.1001 9.10676 13.1001 5.46093Z" stroke="#606060" stroke-width="1.2" stroke-linecap="round" stroke-linejoin="round"/>
<path d="M9.27853 4.42151C9.9294 5.07238 9.9294 6.12766 9.27853 6.77853C8.62766 7.4294 7.57238 7.4294 6.92151 6.77853C6.27063 6.12766 6.27063 5.07238 6.92151 4.42151C7.57238 3.77063 8.62766 3.77063 9.27853 4.42151" stroke="#606060" stroke-width="1.2" stroke-linecap="round" stroke-linejoin="round"/>
</svg>
