<svg width="20" height="20" viewBox="0 0 20 20" fill="none" xmlns="http://www.w3.org/2000/svg">
<path d="M8.71129 6.28867C9.33153 6.90891 9.33153 7.91453 8.71129 8.53477C8.09104 9.15502 7.08543 9.15502 6.46518 8.53477C5.84494 7.91453 5.84494 6.90891 6.46518 6.28867C7.08543 5.66843 8.09104 5.66843 8.71129 6.28867" stroke="#6D6D6D" stroke-width="1.05882" stroke-linecap="round" stroke-linejoin="round"/>
<path d="M17.1176 9V4.41176C17.1176 3.63176 16.4859 3 15.7059 3H4.44071C3.64518 3 3 3.64518 3 4.44071V13.5882C3 14.3682 3.63176 15 4.41176 15H9" stroke="#6D6D6D" stroke-width="1.05882" stroke-linecap="round" stroke-linejoin="round"/>
<path d="M12.1763 6.23527H14.9998" stroke="#6D6D6D" stroke-width="1.05882" stroke-linecap="round" stroke-linejoin="round"/>
<path d="M13.8704 9.059H12.1763" stroke="#6D6D6D" stroke-width="1.05882" stroke-linecap="round" stroke-linejoin="round"/>
<path d="M10.1258 12.1767C10.0023 11.8668 9.81171 11.5887 9.56677 11.3621V11.3621C9.15242 10.9781 8.60889 10.7649 8.04418 10.7649H7.13218C6.56748 10.7649 6.02395 10.9781 5.6096 11.3621V11.3621C5.36465 11.5887 5.17407 11.8668 5.05054 12.1767" stroke="#6D6D6D" stroke-width="1.05882" stroke-linecap="round" stroke-linejoin="round"/>
<path fill-rule="evenodd" clip-rule="evenodd" d="M13.7442 17.4227L17.4225 13.7444C17.7483 13.4185 17.7483 12.891 17.4225 12.566L16.1008 11.2444C15.775 10.9185 15.2475 10.9185 14.9225 11.2444L11.2442 14.9227C11.0875 15.0794 11 15.291 11 15.5119V17.6669H13.155C13.3758 17.6669 13.5875 17.5794 13.7442 17.4227V17.4227Z" stroke="#767676" stroke-width="1.3" stroke-linecap="round" stroke-linejoin="round"/>
</svg>
