<svg width="20" height="20" viewBox="0 0 20 20" fill="none" xmlns="http://www.w3.org/2000/svg">
<path fill-rule="evenodd" clip-rule="evenodd" d="M2.5 13.3333V15C2.5 16.3807 3.61929 17.5 5 17.5H15C16.3807 17.5 17.5 16.3807 17.5 15V13.3333C17.5 12.8731 17.1269 12.5 16.6667 12.5H13.8483C13.5325 12.5 13.2437 12.6785 13.1024 12.961L12.73 13.7058C12.5888 13.9883 12.3001 14.1667 11.9844 14.1667H8.015C7.69899 14.1667 7.41012 13.988 7.26892 13.7053L6.89715 12.961C6.75606 12.6785 6.46743 12.5 6.15167 12.5H3.33333C2.8731 12.5 2.5 12.8731 2.5 13.3333Z" stroke="#767676" stroke-width="1.25" stroke-linecap="round" stroke-linejoin="round"/>
<path d="M7.5 5.83341H10" stroke="#767676" stroke-width="1.25" stroke-linecap="round" stroke-linejoin="round"/>
<path d="M7.5 8.33341H12.5" stroke="#767676" stroke-width="1.25" stroke-linecap="round" stroke-linejoin="round"/>
<path d="M15.8334 10V4.16667C15.8334 3.24619 15.0872 2.5 14.1667 2.5H5.83341C4.91294 2.5 4.16675 3.24619 4.16675 4.16667V10" stroke="#767676" stroke-width="1.25" stroke-linecap="round" stroke-linejoin="round"/>
</svg>
