<svg width="32" height="32" viewBox="0 0 32 32" fill="none" xmlns="http://www.w3.org/2000/svg">
<g clip-path="url(#clip0_5071_20561)">
<rect width="32" height="32" rx="16" fill="#FDF2F2"/>
<g opacity="0.3">
<path fill-rule="evenodd" clip-rule="evenodd" d="M5.57422 21.2515C8.67265 25.5451 15.3122 24.0475 22.7927 21.1704C26.0755 19.9089 27.8977 18.2269 31.1953 20.4032C32.3167 21.1409 33.2314 22.2327 33.9028 23.7524C28.7756 25.9213 23.6558 28.0976 18.5286 30.2665C11.4317 31.3215 7.4259 27.8615 5.57422 21.2515Z" fill="#D43E48"/>
<path fill-rule="evenodd" clip-rule="evenodd" d="M-2.00195 2.23438C5.9802 2.26388 13.6894 2.28602 21.6715 2.31552C24.2904 3.66556 25.7733 6.58693 26.3265 9.8993C20.528 8.84436 15.7033 9.42717 10.8786 9.88455C7.27856 10.2239 5.67032 10.9026 2.57189 8.92551C-0.150307 7.18449 -1.83965 5.02296 -2.00195 2.23438Z" fill="#D43E48"/>
<path fill-rule="evenodd" clip-rule="evenodd" d="M-9 8.897C-4.38186 8.49863 -1.85886 10.0921 0.169877 11.9954C3.80685 15.3963 2.90683 15.8316 4.13882 20.4719C5.87985 27.045 8.7717 32.3639 17.5875 31.2426C12.4603 32.5557 9.33973 36.5173 2.21334 35.182C-8.11477 32.4008 -5.25975 17.6611 -9 8.897Z" fill="#D43E48"/>
<path fill-rule="evenodd" clip-rule="evenodd" d="M22.9688 2.30908C24.7172 2.3681 26.5615 2.31646 28.3836 2.53777C32.8174 3.07631 33.4223 6.55836 34.1231 11.0585C34.5731 13.9577 34.9789 17.1152 35.9969 19.7341C33.0682 19.9406 30.8402 18.7455 29.3279 16.1266C27.2033 11.5232 28.6492 5.62883 22.9688 2.30908Z" fill="#D43E48"/>
</g>
</g>
<rect x="0.285714" y="0.285714" width="31.4286" height="31.4286" rx="15.7143" stroke="#F9D6D7" stroke-width="0.571429"/>
<defs>
<clipPath id="clip0_5071_20561">
<rect width="32" height="32" rx="16" fill="white"/>
</clipPath>
</defs>
</svg>
