<svg width="5" height="5" viewBox="0 0 5 5" fill="none" xmlns="http://www.w3.org/2000/svg">
<path d="M2.18744 4.37494C1.7864 4.37494 1.42016 4.27717 1.08872 4.08162C0.757284 3.88276 0.492132 3.61761 0.293268 3.28617C0.0977192 2.95473 -5.5477e-05 2.58849 -5.5477e-05 2.18744C-5.5477e-05 1.78309 0.0977192 1.41685 0.293268 1.08872C0.492132 0.757283 0.757284 0.493789 1.08872 0.29824C1.42016 0.099376 1.7864 -5.57899e-05 2.18744 -5.57899e-05C2.5918 -5.57899e-05 2.95804 0.099376 3.28617 0.29824C3.61761 0.493789 3.8811 0.757283 4.07665 1.08872C4.27551 1.41685 4.37494 1.78309 4.37494 2.18744C4.37494 2.58849 4.27551 2.95473 4.07665 3.28617C3.8811 3.61761 3.61761 3.88276 3.28617 4.08162C2.95804 4.27717 2.5918 4.37494 2.18744 4.37494Z" fill="#BABABA"/>
</svg>
