<svg width="20" height="20" viewBox="0 0 20 20" fill="none" xmlns="http://www.w3.org/2000/svg">
<path d="M2 5L2 13" stroke="#767676" stroke-width="1.3" stroke-linecap="round"/>
<path d="M17 5L17 13" stroke="#767676" stroke-width="1.3" stroke-linecap="round"/>
<path d="M5 5V11" stroke="#767676" stroke-width="1.3" stroke-linecap="round"/>
<path d="M14 5V11" stroke="#767676" stroke-width="1.3" stroke-linecap="round"/>
<path d="M8 5V10" stroke="#767676" stroke-width="1.3" stroke-linecap="round"/>
<path d="M11 5V10" stroke="#767676" stroke-width="1.3" stroke-linecap="round"/>
<path d="M6.54688 14.1045C6.54688 14.2764 6.5332 14.4302 6.50586 14.5659C6.47852 14.7007 6.43457 14.8154 6.37402 14.9102C6.31445 15.0049 6.23535 15.0771 6.13672 15.127C6.03809 15.1768 5.91699 15.2017 5.77344 15.2017C5.59473 15.2017 5.44824 15.1582 5.33398 15.0713C5.21973 14.9834 5.13525 14.8579 5.08057 14.6948C5.02686 14.5308 5 14.334 5 14.1045C5 13.873 5.02441 13.6753 5.07324 13.5112C5.12305 13.3462 5.20459 13.2197 5.31787 13.1318C5.43115 13.0439 5.58301 13 5.77344 13C5.95215 13 6.09814 13.0439 6.21143 13.1318C6.32568 13.2188 6.41016 13.3447 6.46484 13.5098C6.51953 13.6738 6.54688 13.8721 6.54688 14.1045ZM5.57568 14.1045C5.57568 14.2441 5.58057 14.3613 5.59033 14.4561C5.60107 14.5508 5.62061 14.6221 5.64893 14.6699C5.67822 14.7168 5.71973 14.7402 5.77344 14.7402C5.82715 14.7402 5.86816 14.7168 5.89648 14.6699C5.9248 14.6221 5.94434 14.5513 5.95508 14.4575C5.96582 14.3628 5.97119 14.2451 5.97119 14.1045C5.97119 13.9629 5.96582 13.8447 5.95508 13.75C5.94434 13.6553 5.9248 13.584 5.89648 13.5361C5.86816 13.4873 5.82715 13.4629 5.77344 13.4629C5.71973 13.4629 5.67822 13.4873 5.64893 13.5361C5.62061 13.584 5.60107 13.6553 5.59033 13.75C5.58057 13.8447 5.57568 13.9629 5.57568 14.1045Z" fill="#767676"/>
<path d="M10.1245 15.1724H8.57031V14.7915L9.09326 14.2627C9.20166 14.1494 9.28564 14.0586 9.34521 13.9902C9.40576 13.9219 9.44824 13.8638 9.47266 13.8159C9.49707 13.7681 9.50928 13.7183 9.50928 13.6665C9.50928 13.603 9.48877 13.5571 9.44775 13.5288C9.40674 13.5005 9.3584 13.4863 9.30273 13.4863C9.23535 13.4863 9.16699 13.5059 9.09766 13.5449C9.0293 13.583 8.95166 13.6396 8.86475 13.7148L8.54688 13.3428C8.61133 13.2852 8.67969 13.2305 8.75195 13.1787C8.82422 13.126 8.90967 13.083 9.0083 13.0498C9.10693 13.0166 9.22705 13 9.36865 13C9.51416 13 9.64014 13.0254 9.74658 13.0762C9.854 13.127 9.93701 13.1968 9.99561 13.2856C10.0542 13.3735 10.0835 13.4736 10.0835 13.5859C10.0835 13.71 10.0605 13.8208 10.0146 13.9185C9.96973 14.0151 9.90186 14.1123 9.81104 14.21C9.72021 14.3066 9.60693 14.4165 9.47119 14.5396L9.31445 14.6802V14.6948H10.1245V15.1724Z" fill="#767676"/>
<path d="M13.7861 14.7583H13.5503V15.1729H12.979V14.7583H12.125V14.3335L13.0156 13.0312H13.5503V14.3262H13.7861V14.7583ZM12.979 14.3262V14.0771C12.979 14.0547 12.9795 14.0264 12.9805 13.9922C12.9814 13.958 12.9824 13.9238 12.9834 13.8896C12.9854 13.8545 12.9868 13.8252 12.9878 13.8018C12.9897 13.7773 12.9912 13.7642 12.9922 13.7622H12.9761C12.9575 13.8062 12.9404 13.8428 12.9248 13.8721C12.9092 13.9004 12.8887 13.9341 12.8633 13.9731L12.626 14.3262H12.979Z" fill="#767676"/>
</svg>
