<svg width="20" height="20" viewBox="0 0 20 20" fill="none" xmlns="http://www.w3.org/2000/svg">
<path d="M15.3214 6.66541H16.206C16.923 6.66541 17.5032 7.24565 17.5032 7.96261V16.2069C17.5032 16.923 16.923 17.5033 16.206 17.5033H7.12887C6.41191 17.5033 5.83167 16.923 5.83167 16.206V15.0022" stroke="#606060" stroke-width="1.3" stroke-linecap="round" stroke-linejoin="round"/>
<path fill-rule="evenodd" clip-rule="evenodd" d="M3.33142 15.0022H12.762C13.3197 15.0022 13.84 14.7238 14.1493 14.2594L14.7612 13.3407C15.1263 12.793 15.3214 12.1494 15.3214 11.4908V4.99805C15.3214 4.07683 14.5753 3.33069 13.6541 3.33069H5.31725C4.39603 3.33069 3.64988 4.07683 3.64988 4.99805V10.8805C3.64988 11.3982 3.529 11.9084 3.29807 12.372L2.58611 13.7959C2.30849 14.3503 2.71199 15.0022 3.33142 15.0022Z" stroke="#606060" stroke-width="1.3" stroke-linecap="round" stroke-linejoin="round"/>
<path d="M11.3764 7.99341L9.03128 10.3386L7.62402 8.93213" stroke="#606060" stroke-width="1.3" stroke-linecap="round" stroke-linejoin="round"/>
<path d="M6.98215 2.49695V4.16431" stroke="#606060" stroke-width="1.3" stroke-linecap="round" stroke-linejoin="round"/>
<path d="M11.9842 2.49695V4.16431" stroke="#606060" stroke-width="1.3" stroke-linecap="round" stroke-linejoin="round"/>
</svg>
