<svg width="20" height="20" viewBox="0 0 20 20" fill="none" xmlns="http://www.w3.org/2000/svg">
<path d="M8.12573 8.33838H11.6616V11.8742" stroke="#494949" stroke-width="1.3" stroke-linecap="round" stroke-linejoin="round"/>
<path d="M11.6668 8.33327L5.39592 14.6041C4.95592 15.0441 4.24175 15.0441 3.80175 14.6041V14.6041C2.69342 13.4958 2.06925 11.9924 2.06592 10.4249V10.4249C2.06592 9.39994 2.26425 8.37494 2.65842 7.41077C3.04675 6.46161 3.62425 5.57244 4.39508 4.80244C5.77758 3.41994 7.68758 2.56494 9.79675 2.56494C11.9059 2.56494 13.8159 3.41994 15.1984 4.80244C16.5809 6.18494 17.4359 8.09411 17.4359 10.2041C17.4359 12.3133 16.5809 14.2233 15.1984 15.6058C13.8159 16.9883 11.9068 17.8433 9.79675 17.8433C8.97425 17.8433 8.15342 17.7016 7.36592 17.4366" stroke="#494949" stroke-width="1.3" stroke-linecap="round" stroke-linejoin="round"/>
</svg>
