<svg width="20" height="20" viewBox="0 0 20 20" fill="none" xmlns="http://www.w3.org/2000/svg">
<path d="M8.07471 8.07471C8.27223 7.22341 9.04759 6.63316 9.92075 6.6694C10.898 6.61527 11.7357 7.35993 11.7965 8.33676C11.7965 9.59054 10.0041 10.0041 10.0041 10.8378" stroke="#767676" stroke-width="1.3" stroke-linecap="round" stroke-linejoin="round"/>
<path d="M10.1085 13.1306C10.1084 13.1881 10.0617 13.2347 10.0042 13.2347C9.94668 13.2346 9.90006 13.188 9.90003 13.1305C9.90001 13.073 9.94659 13.0263 10.0041 13.0263C10.0318 13.0262 10.0584 13.0372 10.0779 13.0568C10.0975 13.0764 10.1085 13.1029 10.1085 13.1306" stroke="#767676" stroke-width="1.3" stroke-linecap="round" stroke-linejoin="round"/>
<path fill-rule="evenodd" clip-rule="evenodd" d="M3.86116 14.3045C1.62525 11.1131 2.19984 6.74195 5.18459 4.23678C8.16934 1.73161 12.5739 1.92363 15.3293 4.67904C18.0847 7.43445 18.2767 11.839 15.7715 14.8237C13.2664 17.8085 8.89526 18.3831 5.70382 16.1472L3.33472 16.6736L3.86116 14.3045Z" stroke="#767676" stroke-width="1.3" stroke-linecap="round" stroke-linejoin="round"/>
</svg>
