<svg width="20" height="20" viewBox="0 0 20 20" fill="none" xmlns="http://www.w3.org/2000/svg">
<path d="M7.5 2.5H5C3.61929 2.5 2.5 3.61929 2.5 5V7.5" stroke="#767676" stroke-width="1.3" stroke-linecap="round" stroke-linejoin="round"/>
<path d="M12.5 17.5H15C16.3807 17.5 17.5 16.3807 17.5 15V12.5" stroke="#767676" stroke-width="1.3" stroke-linecap="round" stroke-linejoin="round"/>
<circle cx="13.3333" cy="4.99996" r="3.33333" stroke="#767676" stroke-width="1.3" stroke-linecap="round" stroke-linejoin="round"/>
<path d="M17.4999 9.16669L15.6899 7.35669" stroke="#767676" stroke-width="1.3" stroke-linecap="round" stroke-linejoin="round"/>
<path d="M7.4477 11.5333C6.93582 11.6772 6.39395 11.6772 5.88208 11.5333" stroke="#767676" stroke-width="1.2" stroke-linecap="round" stroke-linejoin="round"/>
<path fill-rule="evenodd" clip-rule="evenodd" d="M10.0781 11.1316V11.1316C9.53762 10.2307 8.46091 9.8027 7.44935 10.0872L7.00216 10.2129C6.78138 10.2747 6.54795 10.2747 6.32764 10.2129L5.88045 10.0872C4.86843 9.8027 3.79218 10.2307 3.25125 11.1316V11.1316C3.03328 11.4949 2.91797 11.9107 2.91749 12.3349V12.3785C2.91562 13.8194 3.20578 15.2458 3.76968 16.5719L3.92343 16.9328C4.06968 17.2764 4.40765 17.5 4.78171 17.5V17.5C5.16374 17.5 5.50733 17.2666 5.64842 16.9117L6.09326 15.7914C6.18654 15.5561 6.41295 15.4019 6.66467 15.4019V15.4019C6.91638 15.4019 7.14279 15.5561 7.23607 15.7914L7.68091 16.9117C7.822 17.2666 8.16559 17.5 8.54762 17.5V17.5C8.92168 17.5 9.25965 17.2764 9.4059 16.9323L9.55965 16.5714C10.124 15.2453 10.4137 13.8189 10.4118 12.378V12.3344C10.4114 11.9107 10.2961 11.4949 10.0781 11.1316Z" stroke="#767676" stroke-width="1.3" stroke-linecap="round" stroke-linejoin="round"/>
</svg>
