<svg width="20" height="20" viewBox="0 0 20 20" fill="none" xmlns="http://www.w3.org/2000/svg">
<path d="M8.26193 8.4823C8.9128 9.13317 8.9128 10.1884 8.26193 10.8393C7.61105 11.4902 6.55578 11.4902 5.9049 10.8393C5.25403 10.1884 5.25403 9.13317 5.9049 8.4823C6.55578 7.83142 7.61105 7.83142 8.26193 8.4823" stroke="#767676" stroke-width="1.3" stroke-linecap="round" stroke-linejoin="round"/>
<path d="M12.5 9.16667H15.8333" stroke="#767676" stroke-width="1.3" stroke-linecap="round" stroke-linejoin="round"/>
<path d="M15 12.0833H12.5" stroke="#767676" stroke-width="1.3" stroke-linecap="round" stroke-linejoin="round"/>
<path d="M10.0001 15.0341C9.85841 14.6783 9.63925 14.3583 9.35758 14.0974V14.0974C8.88175 13.6566 8.25675 13.4108 7.60758 13.4108H6.55925C5.91008 13.4108 5.28508 13.6558 4.80925 14.0974V14.0974C4.52758 14.3574 4.30841 14.6774 4.16675 15.0341" stroke="#767676" stroke-width="1.3" stroke-linecap="round" stroke-linejoin="round"/>
<path fill-rule="evenodd" clip-rule="evenodd" d="M10.8335 5.83329H9.16683C8.70683 5.83329 8.3335 5.45996 8.3335 4.99996V2.49996C8.3335 2.03996 8.70683 1.66663 9.16683 1.66663H10.8335C11.2935 1.66663 11.6668 2.03996 11.6668 2.49996V4.99996C11.6668 5.45996 11.2935 5.83329 10.8335 5.83329Z" stroke="#767676" stroke-width="1.3" stroke-linecap="round" stroke-linejoin="round"/>
<path d="M8.33342 4.16663H3.36758C2.42841 4.16663 1.66675 4.92829 1.66675 5.86746V15.8333C1.66675 16.7541 2.41258 17.5 3.33341 17.5H16.6667C17.5876 17.5 18.3334 16.7541 18.3334 15.8333V5.83329C18.3334 4.91246 17.5876 4.16663 16.6667 4.16663H11.6667" stroke="#767676" stroke-width="1.3" stroke-linecap="round" stroke-linejoin="round"/>
</svg>
